<mxfile host="app.diagrams.net" modified="2020-08-19T03:28:36.596Z" agent="5.0 (Windows NT 10.0; Win64; x64) AppleWebKit/537.36 (KHTML, like Gecko) Chrome/84.0.4147.125 Safari/537.36" etag="6NeqiGs0UcBFNj_37Xuq" version="13.6.3" type="github">
  <diagram id="6a731a19-8d31-9384-78a2-239565b7b9f0" name="Page-1">
    <mxGraphModel dx="1422" dy="762" grid="1" gridSize="10" guides="1" tooltips="1" connect="1" arrows="1" fold="1" page="1" pageScale="1" pageWidth="1169" pageHeight="827" background="#ffffff" math="0" shadow="0">
      <root>
        <mxCell id="0" />
        <mxCell id="1" parent="0" />
        <mxCell id="2" value="start" style="shape=mxgraph.flowchart.terminator;strokeWidth=2;gradientColor=none;gradientDirection=north;fontStyle=0;html=1;" parent="1" vertex="1">
          <mxGeometry x="260" y="60" width="120" height="30" as="geometry" />
        </mxCell>
        <mxCell id="3" value="라이선스 체크" style="shape=mxgraph.flowchart.data;strokeWidth=2;gradientColor=none;gradientDirection=north;fontStyle=0;html=1;" parent="1" vertex="1">
          <mxGeometry x="240.5" y="130" width="159" height="80" as="geometry" />
        </mxCell>
        <mxCell id="5" value="업데이트 제품 확인&lt;br&gt;(라이선스 내 제품 정보)" style="shape=mxgraph.flowchart.data;strokeWidth=2;gradientColor=none;gradientDirection=north;fontStyle=0;html=1;" parent="1" vertex="1">
          <mxGeometry x="206" y="250" width="228" height="80" as="geometry" />
        </mxCell>
        <mxCell id="7" style="fontStyle=1;strokeColor=#003366;strokeWidth=1;html=1;" parent="1" source="2" target="3" edge="1">
          <mxGeometry relative="1" as="geometry" />
        </mxCell>
        <mxCell id="8" style="fontStyle=1;strokeColor=#003366;strokeWidth=1;html=1;" parent="1" source="3" target="5" edge="1">
          <mxGeometry relative="1" as="geometry" />
        </mxCell>
        <mxCell id="9" style="entryX=0.5;entryY=0;entryPerimeter=0;fontStyle=1;strokeColor=#003366;strokeWidth=1;html=1;" parent="1" source="5" edge="1">
          <mxGeometry relative="1" as="geometry">
            <mxPoint x="320" y="390" as="targetPoint" />
          </mxGeometry>
        </mxCell>
        <mxCell id="24" value="로컬 버전 파일 = s3 버전 파일" style="shape=mxgraph.flowchart.decision;strokeWidth=2;gradientColor=none;gradientDirection=north;fontStyle=0;html=1;" parent="1" vertex="1">
          <mxGeometry x="483" y="1150" width="204" height="78.5" as="geometry" />
        </mxCell>
        <mxCell id="25" value="" style="edgeStyle=elbowEdgeStyle;elbow=horizontal;exitX=0.5;exitY=0.9;exitPerimeter=0;fontStyle=1;strokeColor=#003366;strokeWidth=1;html=1;" parent="1" edge="1">
          <mxGeometry y="-90" width="100" height="100" as="geometry">
            <mxPoint x="320" y="911" as="sourcePoint" />
            <mxPoint x="320" y="990" as="targetPoint" />
          </mxGeometry>
        </mxCell>
        <mxCell id="34" value="config.dat &lt;br&gt;다운로드" style="shape=mxgraph.flowchart.data;strokeWidth=2;gradientColor=none;gradientDirection=north;fontStyle=0;html=1;" parent="1" vertex="1">
          <mxGeometry x="505.5" y="1310" width="159" height="80" as="geometry" />
        </mxCell>
        <mxCell id="38" value="update.dat &lt;br&gt;다운로드" style="shape=mxgraph.flowchart.data;strokeWidth=2;gradientColor=none;gradientDirection=north;fontStyle=0;html=1;" parent="1" vertex="1">
          <mxGeometry x="775.5" y="1308.5" width="159" height="80" as="geometry" />
        </mxCell>
        <mxCell id="naaaNqXtlyKmTPPgHsag-57" value="클라이언트 파일셋 &lt;br&gt;업데이트 경로 확인" style="shape=mxgraph.flowchart.data;strokeWidth=2;gradientColor=none;gradientDirection=north;fontStyle=0;html=1;" vertex="1" parent="1">
          <mxGeometry x="207" y="390" width="234" height="80" as="geometry" />
        </mxCell>
        <mxCell id="naaaNqXtlyKmTPPgHsag-62" style="entryX=0.5;entryY=0;entryPerimeter=0;fontStyle=1;strokeColor=#003366;strokeWidth=1;html=1;" edge="1" parent="1">
          <mxGeometry relative="1" as="geometry">
            <mxPoint x="319" y="470" as="sourcePoint" />
            <mxPoint x="319" y="530" as="targetPoint" />
          </mxGeometry>
        </mxCell>
        <mxCell id="naaaNqXtlyKmTPPgHsag-63" value="다운로드 받을 &lt;br&gt;temp 폴더 생성" style="shape=mxgraph.flowchart.data;strokeWidth=2;gradientColor=none;gradientDirection=north;fontStyle=0;html=1;" vertex="1" parent="1">
          <mxGeometry x="207" y="530" width="234" height="80" as="geometry" />
        </mxCell>
        <mxCell id="naaaNqXtlyKmTPPgHsag-64" style="entryX=0.5;entryY=0;entryPerimeter=0;fontStyle=1;strokeColor=#003366;strokeWidth=1;html=1;" edge="1" parent="1">
          <mxGeometry relative="1" as="geometry">
            <mxPoint x="319" y="610" as="sourcePoint" />
            <mxPoint x="319" y="670" as="targetPoint" />
          </mxGeometry>
        </mxCell>
        <mxCell id="naaaNqXtlyKmTPPgHsag-65" value="업데이트 실행" style="rounded=1;whiteSpace=wrap;html=1;absoluteArcSize=1;arcSize=14;strokeWidth=2;" vertex="1" parent="1">
          <mxGeometry x="270" y="670" width="100" height="100" as="geometry" />
        </mxCell>
        <mxCell id="naaaNqXtlyKmTPPgHsag-72" value="" style="edgeStyle=orthogonalEdgeStyle;rounded=0;orthogonalLoop=1;jettySize=auto;html=1;" edge="1" parent="1" source="naaaNqXtlyKmTPPgHsag-66" target="naaaNqXtlyKmTPPgHsag-70">
          <mxGeometry relative="1" as="geometry" />
        </mxCell>
        <mxCell id="naaaNqXtlyKmTPPgHsag-66" value="라이선스 키 해시 생성" style="shape=mxgraph.flowchart.data;strokeWidth=2;gradientColor=none;gradientDirection=north;fontStyle=0;html=1;" vertex="1" parent="1">
          <mxGeometry x="203" y="830" width="234" height="80" as="geometry" />
        </mxCell>
        <mxCell id="naaaNqXtlyKmTPPgHsag-67" style="entryX=0.5;entryY=0;entryPerimeter=0;fontStyle=1;strokeColor=#003366;strokeWidth=1;html=1;" edge="1" parent="1">
          <mxGeometry relative="1" as="geometry">
            <mxPoint x="319" y="770" as="sourcePoint" />
            <mxPoint x="319" y="830" as="targetPoint" />
          </mxGeometry>
        </mxCell>
        <mxCell id="naaaNqXtlyKmTPPgHsag-70" value="클라이언트 파일셋 &lt;br&gt;정보 및 경로 확인" style="shape=mxgraph.flowchart.data;strokeWidth=2;gradientColor=none;gradientDirection=north;fontStyle=0;html=1;" vertex="1" parent="1">
          <mxGeometry x="203" y="990" width="234" height="80" as="geometry" />
        </mxCell>
        <mxCell id="naaaNqXtlyKmTPPgHsag-73" value="" style="edgeStyle=orthogonalEdgeStyle;rounded=0;orthogonalLoop=1;jettySize=auto;html=1;" edge="1" parent="1">
          <mxGeometry relative="1" as="geometry">
            <mxPoint x="320" y="1070" as="sourcePoint" />
            <mxPoint x="320" y="1150" as="targetPoint" />
          </mxGeometry>
        </mxCell>
        <mxCell id="naaaNqXtlyKmTPPgHsag-74" value="" style="edgeStyle=orthogonalEdgeStyle;rounded=0;orthogonalLoop=1;jettySize=auto;html=1;" edge="1" parent="1">
          <mxGeometry relative="1" as="geometry">
            <mxPoint x="320" y="1230" as="sourcePoint" />
            <mxPoint x="320" y="1610" as="targetPoint" />
          </mxGeometry>
        </mxCell>
        <mxCell id="naaaNqXtlyKmTPPgHsag-94" value="END" style="strokeWidth=2;html=1;shape=mxgraph.flowchart.terminator;whiteSpace=wrap;" vertex="1" parent="1">
          <mxGeometry x="250" y="1940" width="150" height="60" as="geometry" />
        </mxCell>
        <mxCell id="naaaNqXtlyKmTPPgHsag-101" value="yes" style="text;fontStyle=0;html=1;strokeColor=none;gradientColor=none;fillColor=none;strokeWidth=2;" vertex="1" parent="1">
          <mxGeometry x="590" y="1258.5" width="40" height="26" as="geometry" />
        </mxCell>
        <mxCell id="naaaNqXtlyKmTPPgHsag-114" value="&lt;span&gt;update.dat&amp;nbsp;&lt;/span&gt;&lt;br&gt;&lt;span&gt;암호화된 내용을 읽기&lt;/span&gt;" style="shape=mxgraph.flowchart.decision;strokeWidth=2;gradientColor=none;gradientDirection=north;fontStyle=0;html=1;" vertex="1" parent="1">
          <mxGeometry x="753" y="1450" width="204" height="78.5" as="geometry" />
        </mxCell>
        <mxCell id="naaaNqXtlyKmTPPgHsag-115" value="" style="endArrow=classic;html=1;exitX=0.5;exitY=1;exitDx=0;exitDy=0;exitPerimeter=0;" edge="1" parent="1" source="38" target="naaaNqXtlyKmTPPgHsag-114">
          <mxGeometry width="50" height="50" relative="1" as="geometry">
            <mxPoint x="560" y="1720" as="sourcePoint" />
            <mxPoint x="610" y="1670" as="targetPoint" />
          </mxGeometry>
        </mxCell>
        <mxCell id="naaaNqXtlyKmTPPgHsag-116" value="" style="endArrow=none;html=1;" edge="1" parent="1">
          <mxGeometry width="50" height="50" relative="1" as="geometry">
            <mxPoint x="780" y="1950" as="sourcePoint" />
            <mxPoint x="620" y="1730" as="targetPoint" />
            <Array as="points">
              <mxPoint x="620" y="1950" />
            </Array>
          </mxGeometry>
        </mxCell>
        <mxCell id="naaaNqXtlyKmTPPgHsag-119" value="" style="endArrow=classic;html=1;exitX=0.905;exitY=0.5;exitDx=0;exitDy=0;exitPerimeter=0;entryX=0.095;entryY=0.5;entryDx=0;entryDy=0;entryPerimeter=0;" edge="1" parent="1" source="34" target="38">
          <mxGeometry width="50" height="50" relative="1" as="geometry">
            <mxPoint x="560" y="1620" as="sourcePoint" />
            <mxPoint x="610" y="1570" as="targetPoint" />
          </mxGeometry>
        </mxCell>
        <mxCell id="naaaNqXtlyKmTPPgHsag-120" value="" style="edgeStyle=elbowEdgeStyle;elbow=vertical;fontStyle=1;strokeColor=#003366;strokeWidth=1;html=1;exitX=0.5;exitY=1;exitDx=0;exitDy=0;exitPerimeter=0;" edge="1" target="naaaNqXtlyKmTPPgHsag-121" parent="1">
          <mxGeometry x="540.5" y="-160" width="100" height="100" as="geometry">
            <mxPoint x="855" y="1528.5" as="sourcePoint" />
            <mxPoint x="860.5" y="1750" as="targetPoint" />
            <Array as="points">
              <mxPoint x="861" y="1640" />
            </Array>
          </mxGeometry>
        </mxCell>
        <mxCell id="naaaNqXtlyKmTPPgHsag-121" value="remove = true" style="shape=mxgraph.flowchart.decision;strokeWidth=2;gradientColor=none;gradientDirection=north;fontStyle=0;html=1;" vertex="1" parent="1">
          <mxGeometry x="753" y="1610" width="204" height="78.5" as="geometry" />
        </mxCell>
        <mxCell id="naaaNqXtlyKmTPPgHsag-122" value="yes" style="text;fontStyle=0;html=1;strokeColor=none;gradientColor=none;fillColor=none;strokeWidth=2;" vertex="1" parent="1">
          <mxGeometry x="870" y="1710" width="40" height="26" as="geometry" />
        </mxCell>
        <mxCell id="naaaNqXtlyKmTPPgHsag-123" value="local file hash = target file hash" style="shape=mxgraph.flowchart.decision;strokeWidth=2;gradientColor=none;gradientDirection=north;fontStyle=0;html=1;" vertex="1" parent="1">
          <mxGeometry x="753" y="1754" width="204" height="78.5" as="geometry" />
        </mxCell>
        <mxCell id="naaaNqXtlyKmTPPgHsag-124" value="" style="edgeStyle=elbowEdgeStyle;elbow=horizontal;fontStyle=1;strokeColor=#003366;strokeWidth=1;html=1;entryX=0;entryY=0.5;entryDx=0;entryDy=0;entryPerimeter=0;" edge="1" parent="1" target="naaaNqXtlyKmTPPgHsag-114">
          <mxGeometry x="571" y="691" width="100" height="100" as="geometry">
            <mxPoint x="753" y="1793" as="sourcePoint" />
            <mxPoint x="957" y="1489.25" as="targetPoint" />
            <Array as="points">
              <mxPoint x="620" y="1650" />
              <mxPoint x="1140" y="1840" />
              <mxPoint x="1140" y="1740" />
            </Array>
          </mxGeometry>
        </mxCell>
        <mxCell id="naaaNqXtlyKmTPPgHsag-125" value="no" style="text;fontStyle=0;html=1;strokeColor=none;gradientColor=none;fillColor=none;strokeWidth=2;" vertex="1" parent="1">
          <mxGeometry x="660" y="1770" width="40" height="26" as="geometry" />
        </mxCell>
        <mxCell id="naaaNqXtlyKmTPPgHsag-126" value="" style="endArrow=classic;html=1;entryX=0.5;entryY=0;entryDx=0;entryDy=0;entryPerimeter=0;" edge="1" target="naaaNqXtlyKmTPPgHsag-123" parent="1">
          <mxGeometry width="50" height="50" relative="1" as="geometry">
            <mxPoint x="855" y="1690" as="sourcePoint" />
            <mxPoint x="880" y="1700" as="targetPoint" />
          </mxGeometry>
        </mxCell>
        <mxCell id="naaaNqXtlyKmTPPgHsag-127" value="yes" style="text;fontStyle=0;html=1;strokeColor=none;gradientColor=none;fillColor=none;strokeWidth=2;" vertex="1" parent="1">
          <mxGeometry x="870" y="1558.5" width="40" height="26" as="geometry" />
        </mxCell>
        <mxCell id="naaaNqXtlyKmTPPgHsag-128" value="" style="endArrow=none;html=1;exitX=0;exitY=0.5;exitDx=0;exitDy=0;exitPerimeter=0;" edge="1" source="naaaNqXtlyKmTPPgHsag-121" parent="1">
          <mxGeometry width="50" height="50" relative="1" as="geometry">
            <mxPoint x="830" y="1750" as="sourcePoint" />
            <mxPoint x="620" y="1650" as="targetPoint" />
          </mxGeometry>
        </mxCell>
        <mxCell id="naaaNqXtlyKmTPPgHsag-129" value="no" style="text;fontStyle=0;html=1;strokeColor=none;gradientColor=none;fillColor=none;strokeWidth=2;" vertex="1" parent="1">
          <mxGeometry x="660" y="1620.25" width="40" height="26" as="geometry" />
        </mxCell>
        <mxCell id="naaaNqXtlyKmTPPgHsag-130" value="no" style="text;fontStyle=0;html=1;strokeColor=none;gradientColor=none;fillColor=none;strokeWidth=2;" vertex="1" parent="1">
          <mxGeometry x="980" y="1460.25" width="40" height="26" as="geometry" />
        </mxCell>
        <mxCell id="naaaNqXtlyKmTPPgHsag-131" value="다운로드" style="rounded=1;whiteSpace=wrap;html=1;absoluteArcSize=1;arcSize=14;strokeWidth=2;" vertex="1" parent="1">
          <mxGeometry x="785" y="1900" width="140" height="100" as="geometry" />
        </mxCell>
        <mxCell id="naaaNqXtlyKmTPPgHsag-132" value="yes" style="text;fontStyle=0;html=1;strokeColor=none;gradientColor=none;fillColor=none;strokeWidth=2;" vertex="1" parent="1">
          <mxGeometry x="870" y="1858.5" width="40" height="26" as="geometry" />
        </mxCell>
        <mxCell id="naaaNqXtlyKmTPPgHsag-133" value="" style="endArrow=classic;html=1;exitX=0.5;exitY=1;exitDx=0;exitDy=0;exitPerimeter=0;entryX=0.5;entryY=0;entryDx=0;entryDy=0;" edge="1" parent="1" source="naaaNqXtlyKmTPPgHsag-123" target="naaaNqXtlyKmTPPgHsag-131">
          <mxGeometry width="50" height="50" relative="1" as="geometry">
            <mxPoint x="560" y="1720" as="sourcePoint" />
            <mxPoint x="610" y="1670" as="targetPoint" />
          </mxGeometry>
        </mxCell>
        <mxCell id="naaaNqXtlyKmTPPgHsag-134" value="TEMP 폴더에&lt;br&gt;클라이언트&amp;nbsp;파일셋 생성" style="shape=mxgraph.flowchart.decision;strokeWidth=2;gradientColor=none;gradientDirection=north;fontStyle=0;html=1;" vertex="1" parent="1">
          <mxGeometry x="218" y="1150" width="204" height="78.5" as="geometry" />
        </mxCell>
        <mxCell id="naaaNqXtlyKmTPPgHsag-135" value="no&lt;br&gt;" style="text;fontStyle=0;html=1;strokeColor=none;gradientColor=none;fillColor=none;strokeWidth=2;" vertex="1" parent="1">
          <mxGeometry x="280" y="1258.5" width="40" height="26" as="geometry" />
        </mxCell>
        <mxCell id="naaaNqXtlyKmTPPgHsag-138" value="" style="endArrow=classic;html=1;entryX=0;entryY=0.5;entryDx=0;entryDy=0;entryPerimeter=0;exitX=1;exitY=0.5;exitDx=0;exitDy=0;exitPerimeter=0;" edge="1" parent="1" source="naaaNqXtlyKmTPPgHsag-134" target="24">
          <mxGeometry width="50" height="50" relative="1" as="geometry">
            <mxPoint x="560" y="1520" as="sourcePoint" />
            <mxPoint x="610" y="1470" as="targetPoint" />
          </mxGeometry>
        </mxCell>
        <mxCell id="naaaNqXtlyKmTPPgHsag-139" value="yes" style="text;fontStyle=0;html=1;strokeColor=none;gradientColor=none;fillColor=none;strokeWidth=2;" vertex="1" parent="1">
          <mxGeometry x="430" y="1158.5" width="40" height="26" as="geometry" />
        </mxCell>
        <mxCell id="naaaNqXtlyKmTPPgHsag-140" value="" style="endArrow=classic;html=1;exitX=0.5;exitY=1;exitDx=0;exitDy=0;exitPerimeter=0;entryX=0.5;entryY=0;entryDx=0;entryDy=0;entryPerimeter=0;" edge="1" parent="1" source="24" target="34">
          <mxGeometry width="50" height="50" relative="1" as="geometry">
            <mxPoint x="560" y="1520" as="sourcePoint" />
            <mxPoint x="600" y="1310" as="targetPoint" />
          </mxGeometry>
        </mxCell>
        <mxCell id="naaaNqXtlyKmTPPgHsag-141" value="" style="endArrow=classic;html=1;exitX=1;exitY=0.5;exitDx=0;exitDy=0;exitPerimeter=0;" edge="1" parent="1" source="24">
          <mxGeometry width="50" height="50" relative="1" as="geometry">
            <mxPoint x="560" y="1220" as="sourcePoint" />
            <mxPoint x="320" y="1100" as="targetPoint" />
            <Array as="points">
              <mxPoint x="1020" y="1189" />
              <mxPoint x="1020" y="1140" />
              <mxPoint x="1020" y="1100" />
            </Array>
          </mxGeometry>
        </mxCell>
        <mxCell id="naaaNqXtlyKmTPPgHsag-143" value="no&lt;br&gt;" style="text;fontStyle=0;html=1;strokeColor=none;gradientColor=none;fillColor=none;strokeWidth=2;" vertex="1" parent="1">
          <mxGeometry x="710" y="1158.5" width="40" height="26" as="geometry" />
        </mxCell>
        <mxCell id="naaaNqXtlyKmTPPgHsag-145" value="기존 파일셋 삭제" style="shape=mxgraph.flowchart.data;strokeWidth=2;gradientColor=none;gradientDirection=north;fontStyle=0;html=1;" vertex="1" parent="1">
          <mxGeometry x="244.5" y="1610" width="159" height="80" as="geometry" />
        </mxCell>
        <mxCell id="naaaNqXtlyKmTPPgHsag-146" value="기존 파일셋 &lt;br&gt;제품 디렉토리로 옮김" style="shape=mxgraph.flowchart.data;strokeWidth=2;gradientColor=none;gradientDirection=north;fontStyle=0;html=1;" vertex="1" parent="1">
          <mxGeometry x="244.5" y="1778.5" width="159" height="80" as="geometry" />
        </mxCell>
        <mxCell id="naaaNqXtlyKmTPPgHsag-147" value="" style="endArrow=classic;html=1;entryX=0.5;entryY=0;entryDx=0;entryDy=0;entryPerimeter=0;exitX=0.5;exitY=1;exitDx=0;exitDy=0;exitPerimeter=0;" edge="1" parent="1" source="naaaNqXtlyKmTPPgHsag-145" target="naaaNqXtlyKmTPPgHsag-146">
          <mxGeometry width="50" height="50" relative="1" as="geometry">
            <mxPoint x="324" y="1700" as="sourcePoint" />
            <mxPoint x="610" y="1570" as="targetPoint" />
          </mxGeometry>
        </mxCell>
        <mxCell id="naaaNqXtlyKmTPPgHsag-148" value="" style="endArrow=classic;html=1;entryX=0.5;entryY=0;entryDx=0;entryDy=0;entryPerimeter=0;" edge="1" parent="1" target="naaaNqXtlyKmTPPgHsag-94">
          <mxGeometry width="50" height="50" relative="1" as="geometry">
            <mxPoint x="325" y="1859" as="sourcePoint" />
            <mxPoint x="610" y="1770" as="targetPoint" />
          </mxGeometry>
        </mxCell>
        <mxCell id="naaaNqXtlyKmTPPgHsag-150" value="" style="endArrow=none;html=1;exitX=1;exitY=0.5;exitDx=0;exitDy=0;exitPerimeter=0;" edge="1" parent="1" source="naaaNqXtlyKmTPPgHsag-114">
          <mxGeometry width="50" height="50" relative="1" as="geometry">
            <mxPoint x="1160" y="1470" as="sourcePoint" />
            <mxPoint x="1020" y="1170" as="targetPoint" />
            <Array as="points">
              <mxPoint x="1020" y="1489" />
            </Array>
          </mxGeometry>
        </mxCell>
        <mxCell id="naaaNqXtlyKmTPPgHsag-151" value="" style="rounded=1;whiteSpace=wrap;html=1;strokeWidth=2;fillWeight=4;hachureGap=8;hachureAngle=45;sketch=0;glass=0;shadow=0;fillColor=none;strokeColor=#FF0000;" vertex="1" parent="1">
          <mxGeometry x="580" y="1420" width="530" height="610" as="geometry" />
        </mxCell>
        <mxCell id="naaaNqXtlyKmTPPgHsag-152" value="&lt;span style=&quot;font-size: 10.5pt; font-family: &amp;quot;맑은 고딕&amp;quot;;&quot;&gt;무결성 체크&lt;/span&gt;" style="text;whiteSpace=wrap;html=1;fontStyle=1;fontColor=#FF0000;" vertex="1" parent="1">
          <mxGeometry x="820" y="2040" width="130" height="30" as="geometry" />
        </mxCell>
      </root>
    </mxGraphModel>
  </diagram>
</mxfile>
